<svg width="40" height="40" viewBox="0 0 40 40" fill="none" xmlns="http://www.w3.org/2000/svg">
  <circle cx="20" cy="20" r="20" fill="#EF4444"/>
  <path d="M15 30C12 30 9.66667 29.1667 8 27.5C6.33333 25.8333 5.5 23.5 5.5 20.5C5.5 17.5 6.33333 15.1667 8 13.5C9.66667 11.8333 12 11 15 11C16.6667 11 18.1667 11.3333 19.5 12C20.8333 12.6667 21.8333 13.5 22.5 14.5L18.5 17.5C18.1667 17 17.6667 16.5833 17 16.25C16.3333 15.9167 15.6667 15.75 15 15.75C13.8333 15.75 12.9167 16.0833 12.25 16.75C11.5833 17.4167 11.25 18.3333 11.25 19.5C11.25 20.6667 11.5833 21.5833 12.25 22.25C12.9167 22.9167 13.8333 23.25 15 23.25C15.6667 23.25 16.3333 23.0833 17 22.75C17.6667 22.4167 18.1667 22 18.5 21.5L22.5 24.5C21.8333 25.5 20.8333 26.3333 19.5 27C18.1667 27.6667 16.6667 28 15 28Z" fill="white"/>
  <path d="M25 30V11H30.5C31.8333 11 33 11.4167 34 12.25C35 13.0833 35.5 14.1667 35.5 15.5C35.5 16.8333 35 17.9167 34 18.75C33 19.5833 31.8333 20 30.5 20H28V30H25ZM28 17.5H30C30.5 17.5 30.9167 17.3333 31.25 17C31.5833 16.6667 31.75 16.25 31.75 15.75C31.75 15.25 31.5833 14.8333 31.25 14.5C30.9167 14.1667 30.5 14 30 14H28V17.5Z" fill="white"/>
</svg>