<svg width="120" height="40" viewBox="0 0 120 40" fill="none" xmlns="http://www.w3.org/2000/svg">
  <!-- "eleste" text -->
  <path d="M15.5 30C12.5 30 10.1667 29.1667 8.5 27.5C6.83333 25.8333 6 23.5 6 20.5C6 17.5 6.83333 15.1667 8.5 13.5C10.1667 11.8333 12.5 11 15.5 11C17.1667 11 18.6667 11.3333 20 12C21.3333 12.6667 22.3333 13.5 23 14.5L19 17.5C18.6667 17 18.1667 16.5833 17.5 16.25C16.8333 15.9167 16.1667 15.75 15.5 15.75C14.1667 15.75 13.0833 16.1667 12.25 17C11.4167 17.8333 11 19 11 20.5C11 22 11.4167 23.1667 12.25 24C13.0833 24.8333 14.1667 25.25 15.5 25.25C16.1667 25.25 16.8333 25.0833 17.5 24.75C18.1667 24.4167 18.6667 24 19 23.5L23 26.5C22.3333 27.5 21.3333 28.3333 20 29C18.6667 29.6667 17.1667 30 15.5 30Z" fill="#EF4444"/>
  <path d="M25 29.5V11.5H30V25H38V29.5H25Z" fill="#EF4444"/>
  <path d="M40 29.5V11.5H53V16H45V18.5H52V23H45V25H53V29.5H40Z" fill="#EF4444"/>
  <path d="M55 29.5V11.5H60V20.5L66 11.5H71.5L65 20.5L72 29.5H66.5L60 20.5V29.5H55Z" fill="#EF4444"/>
  <path d="M74 29.5V11.5H87V16H79V18.5H86V23H79V25H87V29.5H74Z" fill="#EF4444"/>
  
  <!-- Food icon -->
  <circle cx="95" cy="20" r="10" fill="#F97316" />
  <path d="M90 20C90 20 92 16 95 16C98 16 100 20 100 20" stroke="white" stroke-width="2" stroke-linecap="round" />
  <circle cx="92" cy="22" r="1.5" fill="white" />
  <circle cx="95" cy="23" r="1.5" fill="white" />
  <circle cx="98" cy="22" r="1.5" fill="white" />
</svg>